# xmcd CD database file
#
# Track frame offsets:
#	150
#	18719
#	36032
#	55867
#	75182
#	88108
#	109021
#	129767
#	139632
#	151032
#	164890
#	191885
#	204336
#	216968
#	227151
#	247022
#	265968
#	281774
#
# Disc length: 4072 seconds
#
# Revision: 1
# Processed by: cddbd v1.4PL0 Copyright (c) Steve Scherf et al.
# Submitted via: CDex 1.40Release
#
DISCID=fb0fe612
DTITLE=Mance Lipscomb - Texas Songsters Vol. 5 Texas Country Blues
DYEAR=2002
DGENRE=Blues
TTITLE0=Texas Blues
TTITLE1=Black Gal
TTITLE2=Oh, Baby! (You Don't Have To Go)
TTITLE3=Whiskey Blues
TTITLE4=Haunted House Blues
TTITLE5=Mance's Blues
TTITLE6=Does She Ever Think Of Me
TTITLE7=I Just Hang Down My Head And I Cry
TTITLE8=Rag In F
TTITLE9=Wonder Where My Easy Rider Gone
TTITLE10=Tell Me Where You Stayed Last Night
TTITLE11=Corrine, Corrina
TTITLE12=Evil Blues
TTITLE13=Mama, Let Me Lay It On You
TTITLE14=Louise
TTITLE15=Sometimes I Feel Like
TTITLE16=Blues In The Bottle
TTITLE17=Angel Child
EXTD=YEAR: 2002 ID3G: 0
EXTT0=
EXTT1=
EXTT2=
EXTT3=
EXTT4=
EXTT5=
EXTT6=
EXTT7=
EXTT8=
EXTT9=
EXTT10=
EXTT11=
EXTT12=
EXTT13=
EXTT14=
EXTT15=
EXTT16=
EXTT17=
PLAYORDER=
